<mxfile host="app.diagrams.net" modified="2024-08-19T16:12:14.061Z" agent="Mozilla/5.0 (X11; Linux x86_64) AppleWebKit/537.36 (KHTML, like Gecko) Chrome/127.0.0.0 Safari/537.36" etag="BZu0M6HnEEGDDzHOtKcM" version="24.6.4" type="github">
  <diagram name="Page-1" id="QUvGtigypCUAOAy9GkHb">
    <mxGraphModel dx="1680" dy="461" grid="1" gridSize="10" guides="1" tooltips="1" connect="1" arrows="1" fold="1" page="1" pageScale="1" pageWidth="850" pageHeight="1100" math="0" shadow="0">
      <root>
        <mxCell id="0" />
        <mxCell id="1" parent="0" />
        <mxCell id="fV_EQNfIdYzagkr4_pfz-1" value="" style="whiteSpace=wrap;html=1;aspect=fixed;" vertex="1" parent="1">
          <mxGeometry x="190" y="80" width="520" height="520" as="geometry" />
        </mxCell>
        <mxCell id="fV_EQNfIdYzagkr4_pfz-2" value="" style="verticalLabelPosition=bottom;verticalAlign=top;html=1;shape=mxgraph.basic.pyramid;dx1=0.51;dx2=0.69;dy1=1;dy2=0.77;" vertex="1" parent="1">
          <mxGeometry x="160" y="172" width="60" height="40" as="geometry" />
        </mxCell>
        <mxCell id="fV_EQNfIdYzagkr4_pfz-3" value="ROYGBIV.GUIDE" style="text;html=1;align=center;verticalAlign=middle;whiteSpace=wrap;rounded=0;" vertex="1" parent="1">
          <mxGeometry x="190" y="40" width="520" height="30" as="geometry" />
        </mxCell>
        <mxCell id="fV_EQNfIdYzagkr4_pfz-4" value="BIP353&lt;div&gt;tip@roygbiv.guide&lt;/div&gt;" style="text;html=1;align=center;verticalAlign=middle;whiteSpace=wrap;rounded=0;" vertex="1" parent="1">
          <mxGeometry x="-40" y="177" width="80" height="30" as="geometry" />
        </mxCell>
        <mxCell id="fV_EQNfIdYzagkr4_pfz-5" value="" style="curved=1;endArrow=classic;html=1;rounded=0;" edge="1" parent="1" source="fV_EQNfIdYzagkr4_pfz-4" target="fV_EQNfIdYzagkr4_pfz-2">
          <mxGeometry width="50" height="50" relative="1" as="geometry">
            <mxPoint x="440" y="232" as="sourcePoint" />
            <mxPoint x="490" y="182" as="targetPoint" />
            <Array as="points">
              <mxPoint x="140" y="192" />
            </Array>
          </mxGeometry>
        </mxCell>
        <mxCell id="fV_EQNfIdYzagkr4_pfz-6" value="" style="verticalLabelPosition=bottom;verticalAlign=top;html=1;shape=mxgraph.basic.pyramid;dx1=0.51;dx2=0.69;dy1=1;dy2=0.77;" vertex="1" parent="1">
          <mxGeometry x="310" y="239" width="60" height="40" as="geometry" />
        </mxCell>
        <mxCell id="fV_EQNfIdYzagkr4_pfz-7" value="" style="verticalLabelPosition=bottom;verticalAlign=top;html=1;shape=mxgraph.basic.pyramid;dx1=0.51;dx2=0.69;dy1=1;dy2=0.77;" vertex="1" parent="1">
          <mxGeometry x="310" y="170" width="60" height="40" as="geometry" />
        </mxCell>
        <mxCell id="fV_EQNfIdYzagkr4_pfz-8" value="" style="verticalLabelPosition=bottom;verticalAlign=top;html=1;shape=mxgraph.basic.pyramid;dx1=0.51;dx2=0.69;dy1=1;dy2=0.77;" vertex="1" parent="1">
          <mxGeometry x="310" y="99" width="60" height="40" as="geometry" />
        </mxCell>
        <mxCell id="fV_EQNfIdYzagkr4_pfz-9" value="" style="curved=1;endArrow=classic;html=1;rounded=0;exitX=0;exitY=0;exitDx=45.3;exitDy=15.4;exitPerimeter=0;" edge="1" parent="1" source="fV_EQNfIdYzagkr4_pfz-2" target="fV_EQNfIdYzagkr4_pfz-8">
          <mxGeometry width="50" height="50" relative="1" as="geometry">
            <mxPoint x="50" y="239" as="sourcePoint" />
            <mxPoint x="170" y="239" as="targetPoint" />
            <Array as="points">
              <mxPoint x="240" y="169" />
            </Array>
          </mxGeometry>
        </mxCell>
        <mxCell id="fV_EQNfIdYzagkr4_pfz-11" value="" style="curved=1;endArrow=classic;html=1;rounded=0;exitX=0.817;exitY=0.557;exitDx=0;exitDy=0;exitPerimeter=0;" edge="1" parent="1" source="fV_EQNfIdYzagkr4_pfz-2" target="fV_EQNfIdYzagkr4_pfz-7">
          <mxGeometry width="50" height="50" relative="1" as="geometry">
            <mxPoint x="240" y="242" as="sourcePoint" />
            <mxPoint x="360" y="177" as="targetPoint" />
            <Array as="points">
              <mxPoint x="275" y="187" />
            </Array>
          </mxGeometry>
        </mxCell>
        <mxCell id="fV_EQNfIdYzagkr4_pfz-12" value="" style="curved=1;endArrow=classic;html=1;rounded=0;" edge="1" parent="1" source="fV_EQNfIdYzagkr4_pfz-2" target="fV_EQNfIdYzagkr4_pfz-6">
          <mxGeometry width="50" height="50" relative="1" as="geometry">
            <mxPoint x="219" y="204" as="sourcePoint" />
            <mxPoint x="320" y="199" as="targetPoint" />
            <Array as="points">
              <mxPoint x="285" y="197" />
            </Array>
          </mxGeometry>
        </mxCell>
        <mxCell id="fV_EQNfIdYzagkr4_pfz-29" value="/blog" style="whiteSpace=wrap;html=1;aspect=fixed;verticalAlign=top;horizontal=1;" vertex="1" parent="1">
          <mxGeometry x="396" y="320" width="260" height="260" as="geometry" />
        </mxCell>
        <mxCell id="fV_EQNfIdYzagkr4_pfz-14" value="BIP353&lt;div&gt;post1@roygbiv.guide&lt;/div&gt;" style="text;html=1;align=right;verticalAlign=middle;whiteSpace=wrap;rounded=0;" vertex="1" parent="1">
          <mxGeometry x="245" y="443.5" width="80" height="29" as="geometry" />
        </mxCell>
        <mxCell id="fV_EQNfIdYzagkr4_pfz-15" value="" style="curved=1;endArrow=classic;html=1;rounded=0;" edge="1" parent="1">
          <mxGeometry width="50" height="50" relative="1" as="geometry">
            <mxPoint x="325" y="460" as="sourcePoint" />
            <mxPoint x="365" y="460" as="targetPoint" />
            <Array as="points">
              <mxPoint x="345" y="460" />
            </Array>
          </mxGeometry>
        </mxCell>
        <mxCell id="fV_EQNfIdYzagkr4_pfz-17" value="" style="verticalLabelPosition=bottom;verticalAlign=top;html=1;shape=mxgraph.basic.pyramid;dx1=0.51;dx2=0.69;dy1=1;dy2=0.77;" vertex="1" parent="1">
          <mxGeometry x="365" y="438" width="60" height="40" as="geometry" />
        </mxCell>
        <mxCell id="fV_EQNfIdYzagkr4_pfz-18" value="" style="verticalLabelPosition=bottom;verticalAlign=top;html=1;shape=mxgraph.basic.pyramid;dx1=0.51;dx2=0.69;dy1=1;dy2=0.77;" vertex="1" parent="1">
          <mxGeometry x="365" y="367" width="60" height="40" as="geometry" />
        </mxCell>
        <mxCell id="fV_EQNfIdYzagkr4_pfz-24" value="BIP353&lt;div&gt;post0@roygbiv.guide&lt;/div&gt;" style="text;html=1;align=right;verticalAlign=middle;whiteSpace=wrap;rounded=0;" vertex="1" parent="1">
          <mxGeometry x="255" y="367" width="80" height="29" as="geometry" />
        </mxCell>
        <mxCell id="fV_EQNfIdYzagkr4_pfz-25" value="" style="curved=1;endArrow=classic;html=1;rounded=0;" edge="1" parent="1">
          <mxGeometry width="50" height="50" relative="1" as="geometry">
            <mxPoint x="335" y="383.5" as="sourcePoint" />
            <mxPoint x="375" y="383.5" as="targetPoint" />
            <Array as="points">
              <mxPoint x="355" y="383.5" />
            </Array>
          </mxGeometry>
        </mxCell>
        <mxCell id="fV_EQNfIdYzagkr4_pfz-26" value="BIP353&lt;div&gt;post1@roygbiv.guide&lt;/div&gt;" style="text;html=1;align=right;verticalAlign=middle;whiteSpace=wrap;rounded=0;" vertex="1" parent="1">
          <mxGeometry x="244" y="515.5" width="80" height="29" as="geometry" />
        </mxCell>
        <mxCell id="fV_EQNfIdYzagkr4_pfz-27" value="" style="curved=1;endArrow=classic;html=1;rounded=0;" edge="1" parent="1">
          <mxGeometry width="50" height="50" relative="1" as="geometry">
            <mxPoint x="324" y="532" as="sourcePoint" />
            <mxPoint x="364" y="532" as="targetPoint" />
            <Array as="points">
              <mxPoint x="344" y="532" />
            </Array>
          </mxGeometry>
        </mxCell>
        <mxCell id="fV_EQNfIdYzagkr4_pfz-28" value="" style="verticalLabelPosition=bottom;verticalAlign=top;html=1;shape=mxgraph.basic.pyramid;dx1=0.51;dx2=0.69;dy1=1;dy2=0.77;" vertex="1" parent="1">
          <mxGeometry x="364" y="510" width="60" height="40" as="geometry" />
        </mxCell>
        <mxCell id="fV_EQNfIdYzagkr4_pfz-30" value="/about" style="text;html=1;align=center;verticalAlign=middle;whiteSpace=wrap;rounded=0;" vertex="1" parent="1">
          <mxGeometry x="365" y="249" width="60" height="30" as="geometry" />
        </mxCell>
        <mxCell id="fV_EQNfIdYzagkr4_pfz-31" value="/demo" style="text;html=1;align=center;verticalAlign=middle;whiteSpace=wrap;rounded=0;" vertex="1" parent="1">
          <mxGeometry x="365" y="180" width="60" height="30" as="geometry" />
        </mxCell>
        <mxCell id="fV_EQNfIdYzagkr4_pfz-32" value="/v4v" style="text;html=1;align=center;verticalAlign=middle;whiteSpace=wrap;rounded=0;" vertex="1" parent="1">
          <mxGeometry x="360" y="109" width="60" height="30" as="geometry" />
        </mxCell>
        <mxCell id="fV_EQNfIdYzagkr4_pfz-33" value="&lt;ul&gt;&lt;li&gt;author_c&lt;/li&gt;&lt;li&gt;author_d&lt;/li&gt;&lt;li&gt;author_u&lt;/li&gt;&lt;/ul&gt;" style="text;html=1;align=left;verticalAlign=middle;whiteSpace=wrap;rounded=0;" vertex="1" parent="1">
          <mxGeometry x="410" y="373" width="120" height="30" as="geometry" />
        </mxCell>
        <mxCell id="fV_EQNfIdYzagkr4_pfz-36" value="&lt;ul&gt;&lt;li&gt;author_a&lt;/li&gt;&lt;li&gt;author_k&lt;/li&gt;&lt;li&gt;author_r&lt;br&gt;...&lt;/li&gt;&lt;/ul&gt;" style="text;html=1;align=left;verticalAlign=middle;whiteSpace=wrap;rounded=0;" vertex="1" parent="1">
          <mxGeometry x="410" y="251" width="120" height="30" as="geometry" />
        </mxCell>
        <mxCell id="fV_EQNfIdYzagkr4_pfz-37" value="&lt;ul&gt;&lt;li&gt;author_a&lt;/li&gt;&lt;li&gt;author_j&lt;/li&gt;&lt;li&gt;author_c&lt;br&gt;...&lt;/li&gt;&lt;/ul&gt;" style="text;html=1;align=left;verticalAlign=middle;whiteSpace=wrap;rounded=0;" vertex="1" parent="1">
          <mxGeometry x="410" y="180" width="120" height="30" as="geometry" />
        </mxCell>
        <mxCell id="fV_EQNfIdYzagkr4_pfz-38" value="&lt;ul&gt;&lt;li&gt;author_a&lt;/li&gt;&lt;li&gt;author_b&lt;/li&gt;&lt;li&gt;...&lt;/li&gt;&lt;/ul&gt;" style="text;html=1;align=left;verticalAlign=middle;whiteSpace=wrap;rounded=0;" vertex="1" parent="1">
          <mxGeometry x="410" y="109" width="120" height="30" as="geometry" />
        </mxCell>
      </root>
    </mxGraphModel>
  </diagram>
</mxfile>
